Patient4_TMGait_0pt8_01_right_28_GRF.mot
version=1
nRows=51
nColumns=19
inDegrees=no
endheader
time	F1x	F1y	F1z	M1x	M1y	M1z	F2x	F2y	F2z	M2x	M2y	M2z	EC1x	EC1y	EC1z	EC2x	EC2y	EC2z
31.27	31.5514	755.9627	76.0984	-276.1981	-73.5547	838.4969	10.271	4.627	10.359	-2.0455	-12.1125	-9.878	-0.0592	0.0182	-0.0073	-0.0462	0.0165	0.9585
31.2813	28.8394	748.2634	76.7201	-273.4388	-74.1095	822.6519	6.7677	4.5161	7.2172	-0.98335	-8.1912	-4.8936	-0.0592	0.0182	-0.0073	-0.0462	0.0165	0.9585
31.2926	27.2044	739.7489	77.0855	-270.3267	-74.0291	805.8873	3.8492	4.4464	4.4122	-0.026816	-4.7931	-0.64993	-0.0592	0.0182	-0.0073	-0.0462	0.0165	0.9585
31.3039	26.7948	730.9679	77.1601	-267.0623	-73.2705	789.1678	1.6148	4.4658	2.189	0.75485	-2.1506	2.6919	-0.0592	0.0182	-0.0073	-0.0462	0.0165	0.9585
31.3151	27.4786	722.4267	77.0185	-263.8279	-71.9694	773.22	0.097947	4.5526	0.58736	1.3416	-0.28933	5.0937	-0.0592	0.0182	-0.0073	-0.0462	0.0165	0.9585
31.3264	29.0633	714.5007	76.7554	-260.7608	-70.2983	758.4895	-0.86025	4.6999	-0.45144	1.7533	0.89541	6.7045	-0.0592	0.0182	-0.0073	-0.0462	0.0165	0.9585
31.3377	31.2574	707.488	76.5163	-257.9679	-68.4946	745.2692	-1.3473	4.8229	-1.0559	2.0048	1.5511	7.6065	-0.0592	0.0182	-0.0073	-0.0462	0.0165	0.9585
31.349	33.8253	701.6261	76.3558	-255.5351	-66.692	733.7499	-1.5404	4.8768	-1.3466	2.1192	1.8392	7.9701	-0.0592	0.0182	-0.0073	-0.0462	0.0165	0.9585
31.3603	36.5337	697.0779	76.3065	-253.5214	-64.9956	724.038	-1.5176	4.7217	-1.4363	2.0895	1.8863	7.7615	-0.0592	0.0182	-0.0073	-0.0462	0.0165	0.9585
31.3716	39.2	693.8681	76.3318	-251.9405	-63.4258	716.0836	-1.3824	4.2508	-1.4122	1.9014	1.7987	6.9908	-0.0592	0.0182	-0.0073	-0.0462	0.0165	0.9585
31.3829	41.6916	691.8709	76.4011	-250.7512	-61.9919	709.7133	-1.145	3.2628	-1.3229	1.509	1.6203	5.4727	-0.0592	0.0182	-0.0073	-0.0462	0.0165	0.9585
31.3941	43.9306	690.8609	76.4849	-249.8747	-60.6887	704.6464	-0.85424	1.6305	-1.2103	0.8758	1.3985	3.1164	-0.0592	0.0182	-0.0073	-0.0462	0.0165	0.9585
31.4054	45.8921	690.549	76.5757	-249.2061	-59.5173	700.5614	-0.47592	-0.80661	-1.0847	-0.043425	1.128	-0.26319	-0.0592	0.0182	-0.0073	-0.0462	0.0165	0.9585
31.4167	47.6526	690.6579	76.6996	-248.639	-58.4856	697.1605	-0.048541	-4.0438	-0.95061	-1.2467	0.81406	-4.6313	-0.0592	0.0182	-0.0073	-0.0462	0.0165	0.9585
31.428	49.3007	690.9516	76.9009	-248.0759	-57.6103	694.1694	0.43787	-7.9549	-0.79087	-2.681	0.43128	-9.8284	-0.0592	0.0182	-0.0073	-0.0462	0.0165	0.9585
31.4393	50.9752	691.2496	77.2437	-247.4327	-56.9096	691.373	0.91394	-12.0744	-0.58598	-4.1773	-0.020608	-15.2394	-0.0592	0.0182	-0.0073	-0.0462	0.0165	0.9585
31.4506	52.7932	691.3368	77.7684	-246.6166	-56.3818	688.5418	1.3212	-15.5508	-0.31092	-5.4194	-0.54159	-19.7948	-0.0592	0.0182	-0.0073	-0.0462	0.0165	0.9585
31.4619	54.8427	690.9331	78.4914	-245.5163	-56.0007	685.3604	1.4783	-16.9168	0.046503	-5.8744	-1.0799	-21.5935	-0.0592	0.0182	-0.0073	-0.0462	0.0165	0.9585
31.4731	57.1734	689.6712	79.3657	-243.9987	-55.6953	681.4489	1.1814	-14.0362	0.48315	-4.7622	-1.5435	-17.8992	-0.0592	0.0182	-0.0073	-0.0462	0.0165	0.9585
31.4844	59.7719	687.0629	80.3034	-241.9055	-55.3732	676.3009	0.075874	-4.0139	0.9588	-1.0306	-1.7418	-4.9777	-0.0592	0.0182	-0.0073	-0.0462	0.0165	0.9585
31.4957	62.5466	682.5721	81.1753	-239.0759	-54.9366	669.4002	-2.2005	16.6144	1.3715	6.5822	-1.3911	21.6298	-0.0592	0.0182	-0.0073	-0.0462	0.0165	0.9585
31.507	65.3999	675.5889	81.7982	-235.3474	-54.2468	660.1567	-6.0849	51.5558	1.5631	19.4137	-0.10387	66.7184	-0.0592	0.0182	-0.0073	-0.0462	0.0165	0.9585
31.5183	68.1335	665.3712	81.9367	-230.532	-53.1547	647.8907	-11.9071	103.9369	1.2983	38.5795	2.5797	134.3244	-0.0592	0.0182	-0.0073	-0.0462	0.0165	0.9585
31.5296	70.5453	650.7987	81.2942	-224.3306	-51.4642	631.5608	-19.8498	175.0343	0.24446	64.5049	7.1804	226.1277	-0.0592	0.0182	-0.0073	-0.0462	0.0165	0.9585
31.5409	72.3068	630.2865	79.5359	-216.2839	-48.9897	609.7071	-29.9824	262.6479	-1.985	96.3323	14.246	339.2911	-0.0592	0.0182	-0.0073	-0.0462	0.0165	0.9585
31.5521	73.0138	601.9117	76.3921	-205.8016	-45.6308	580.5312	-42.6922	359.2492	-5.7901	131.2393	24.4328	464.1081	-0.0592	0.0182	-0.0073	-0.0462	0.0165	0.9585
31.5634	72.1423	563.9763	71.7033	-192.3374	-41.4295	542.4852	-58.0341	451.8896	-12.1847	164.4728	38.7855	583.7826	-0.0592	0.0182	-0.0073	-0.0462	0.0165	0.9585
31.5747	69.2009	515.6729	65.5494	-175.6063	-36.6474	494.8275	-74.2666	531.6798	-21.7869	192.7641	57.2133	686.5996	-0.0592	0.0182	-0.0073	-0.0462	0.0165	0.9585
31.586	63.82	457.8928	58.1484	-155.8387	-31.6095	438.4908	-89.957	598.1974	-32.865	215.9572	77.1945	771.7599	-0.0592	0.0182	-0.0073	-0.0462	0.0165	0.9585
31.5973	56.0252	392.7679	50.0434	-133.6829	-26.8008	375.5151	-102.9257	653.8543	-44.475	235.0034	96.672	841.989	-0.0592	0.0182	-0.0073	-0.0462	0.0165	0.9585
31.6086	46.1217	323.7286	41.723	-110.2269	-22.5415	309.1763	-112.2637	701.4076	-54.9262	251.0042	113.2787	900.7882	-0.0592	0.0182	-0.0073	-0.0462	0.0165	0.9585
31.6199	34.8782	254.8841	33.6522	-86.8235	-18.993	243.3204	-117.2426	741.9105	-63.5915	264.4104	125.952	949.3913	-0.0592	0.0182	-0.0073	-0.0462	0.0165	0.9585
31.6311	23.4006	190.507	26.2134	-64.9074	-16.1169	181.948	-118.5108	775.2416	-70.3059	275.1953	134.6574	987.9603	-0.0592	0.0182	-0.0073	-0.0462	0.0165	0.9585
31.6424	13.0495	134.0861	19.5917	-45.6732	-13.6128	128.2605	-116.5126	801.0041	-75.2093	283.2117	139.8087	1016.1567	-0.0592	0.0182	-0.0073	-0.0462	0.0165	0.9585
31.6537	4.8714	87.5543	13.9538	-29.8011	-11.26	84.0234	-112.3209	818.9756	-78.9494	288.3281	142.5115	1034.1288	-0.0592	0.0182	-0.0073	-0.0462	0.0165	0.9585
31.665	-0.67617	51.561	9.2235	-17.5257	-8.823	49.781	-106.4871	828.8408	-81.6349	290.4561	143.2196	1041.6724	-0.0592	0.0182	-0.0073	-0.0462	0.0165	0.9585
31.6763	-3.6716	25.5656	5.4449	-8.6695	-6.3769	25.0143	-99.836	831.0823	-83.6448	289.7529	142.6447	1039.7093	-0.0592	0.0182	-0.0073	-0.0462	0.0165	0.9585
31.6876	-4.7508	8.4394	2.592	-2.843	-4.1194	8.6511	-92.7466	826.2232	-84.7753	286.4732	140.7902	1028.9853	-0.0592	0.0182	-0.0073	-0.0462	0.0165	0.9585
31.6989	-4.6341	-1.537	0.71599	0.54527	-2.3478	-0.94195	-85.8237	815.3533	-85.1038	281.0371	137.9363	1011.0615	-0.0592	0.0182	-0.0073	-0.0462	0.0165	0.9585
31.7101	-3.9226	-6.3065	-0.36406	2.1555	-1.1023	-5.5626	-79.1096	799.8903	-84.4658	274.0117	133.9774	987.637	-0.0592	0.0182	-0.0073	-0.0462	0.0165	0.9585
31.7214	-2.9656	-7.598	-0.88361	2.579	-0.29055	-6.9023	-72.8671	781.569	-82.9686	266.0387	129.1266	960.9203	-0.0592	0.0182	-0.0073	-0.0462	0.0165	0.9585
31.7327	-2.063	-6.8787	-0.99132	2.3183	0.12107	-6.2948	-66.9968	762.0255	-80.8967	257.7156	123.7079	932.836	-0.0592	0.0182	-0.0073	-0.0462	0.0165	0.9585
31.744	-1.2659	-5.1786	-0.91327	1.7207	0.3179	-4.7689	-61.746	742.652	-78.4927	249.5362	118.108	905.1038	-0.0592	0.0182	-0.0073	-0.0462	0.0165	0.9585
31.7553	-0.70737	-3.2062	-0.69508	1.0334	0.30409	-2.9193	-57.1124	724.5501	-76.1248	241.891	112.7659	879.0057	-0.0592	0.0182	-0.0073	-0.0462	0.0165	0.9585
31.7666	-0.28029	-1.3918	-0.47904	0.39477	0.24465	-1.217	-53.1922	708.754	-73.8806	235.1359	107.8642	855.7745	-0.0592	0.0182	-0.0073	-0.0462	0.0165	0.9585
31.7779	-0.053912	0.12078	-0.27124	-0.13369	0.13418	0.2714	-50.0034	695.877	-72.012	229.4914	103.689	836.0865	-0.0592	0.0182	-0.0073	-0.0462	0.0165	0.9585
31.7891	0.11957	1.2101	-0.10654	-0.51829	0.048813	1.351	-47.4691	686.4739	-70.491	225.1488	100.219	820.5144	-0.0592	0.0182	-0.0073	-0.0462	0.0165	0.9585
31.8004	0.17772	1.9878	-0.010076	-0.78648	-0.0034665	2.1933	-45.5189	680.6443	-69.4095	222.1561	97.5188	809.0697	-0.0592	0.0182	-0.0073	-0.0462	0.0165	0.9585
31.8117	0.25762	2.4433	0.065062	-0.94416	-0.034656	2.7	-43.9783	678.4577	-68.6665	220.5456	95.432	801.72	-0.0592	0.0182	-0.0073	-0.0462	0.0165	0.9585
31.823	0.25818	2.7343	0.068382	-1.0379	-0.019624	3.088	-42.6889	679.786	-68.1983	220.2873	93.8196	798.2116	-0.0592	0.0182	-0.0073	-0.0462	0.0165	0.9585
31.8343	0.3115	2.8852	0.088259	-1.0812	-0.0095532	3.2948	-41.4897	684.3876	-67.8742	221.3166	92.4814	798.1689	-0.0592	0.0182	-0.0073	-0.0462	0.0165	0.9585
